<?xml version="1.0" standalone="no"?>
<!DOCTYPE svg PUBLIC "-//W3C//DTD SVG 20010904//EN"
 "http://www.w3.org/TR/2001/REC-SVG-20010904/DTD/svg10.dtd">
<svg version="1.0" xmlns="http://www.w3.org/2000/svg"
 width="310.000000pt" height="310.000000pt" viewBox="0 0 310.000000 310.000000"
 preserveAspectRatio="xMidYMid meet">
<metadata>
Created by potrace 1.14, written by Peter Selinger 2001-2017
</metadata>
<g transform="translate(0.000000,310.000000) scale(0.100000,-0.100000)"
fill="#000000" stroke="none">
<path d="M1498 3011 l-33 -29 -5 -202 -5 -201 -100 113 c-56 62 -113 119 -129
126 -69 34 -165 -53 -141 -129 4 -11 90 -116 191 -231 l184 -211 0 -259 c0
-142 -2 -258 -5 -258 -4 0 -375 211 -430 245 -14 9 -42 76 -94 231 -111 328
-109 322 -141 339 -60 31 -132 8 -156 -51 -14 -34 -13 -41 35 -182 27 -81 48
-149 46 -151 -2 -2 -76 38 -163 88 -181 103 -210 110 -262 64 -40 -36 -48 -86
-22 -128 13 -21 70 -60 180 -123 89 -52 162 -95 162 -96 0 -2 -66 -16 -147
-32 -123 -23 -152 -32 -178 -55 -65 -59 -22 -179 64 -179 20 0 151 23 293 51
l256 52 221 -129 c122 -70 221 -131 221 -135 0 -3 -99 -63 -221 -134 l-221
-127 -257 51 c-141 28 -272 51 -292 51 -53 0 -94 -46 -94 -106 0 -38 5 -50 31
-73 26 -24 54 -33 178 -57 127 -24 145 -30 129 -41 -9 -8 -82 -50 -161 -95
-160 -90 -187 -117 -178 -178 3 -22 17 -45 36 -62 52 -47 81 -40 262 63 88 50
161 89 163 87 2 -2 -19 -69 -46 -150 -48 -141 -49 -148 -35 -182 25 -59 96
-82 156 -51 17 9 30 17 30 18 1 1 42 123 93 271 l92 268 223 129 c123 71 225
129 228 129 2 0 4 -116 4 -258 l0 -259 -184 -211 c-101 -115 -187 -220 -191
-231 -11 -35 4 -79 37 -106 71 -59 110 -42 238 107 l95 110 5 -202 5 -202 33
-29 c46 -42 93 -40 138 5 l34 34 0 199 1 198 57 -65 c31 -36 82 -92 114 -125
51 -54 60 -60 98 -60 36 0 47 6 76 38 33 36 41 66 27 103 -3 10 -89 112 -190
227 l-183 210 0 259 c0 142 2 258 4 258 3 0 105 -58 228 -128 l223 -129 92
-269 c51 -148 92 -270 92 -271 1 -1 14 -9 31 -18 60 -31 131 -8 156 51 14 34
13 41 -35 182 -27 81 -47 149 -45 151 1 2 75 -38 162 -88 182 -104 210 -111
264 -62 28 25 33 36 33 74 0 29 -6 52 -18 65 -10 11 -91 62 -180 113 l-161 93
152 31 c173 35 199 51 209 122 4 35 1 45 -27 76 -26 30 -39 37 -69 37 -20 0
-151 -23 -293 -51 l-256 -52 -221 129 c-122 70 -221 131 -221 134 0 3 100 64
222 134 l221 128 256 -51 c141 -28 272 -51 292 -51 53 0 94 46 94 106 0 38 -5
50 -31 73 -26 24 -54 32 -175 56 -79 15 -145 28 -147 30 -2 1 69 44 156 94 88
51 168 101 178 113 13 13 19 35 19 65 0 38 -5 49 -33 74 -54 48 -82 42 -262
-61 -87 -50 -160 -90 -163 -90 -3 0 17 67 44 150 47 143 49 151 35 184 -32 77
-149 89 -187 19 -8 -14 -52 -138 -99 -276 l-85 -251 -215 -124 c-118 -68 -221
-126 -227 -129 -10 -4 -13 51 -13 254 l0 259 183 211 c101 115 187 218 190
227 15 38 6 69 -26 101 -39 39 -72 50 -109 36 -15 -5 -73 -62 -130 -127 l-103
-116 -5 202 -5 202 -33 29 c-22 20 -43 29 -67 29 -24 0 -45 -9 -67 -29z"/>
</g>
</svg>
