<?xml version="1.0" standalone="no"?>
<!DOCTYPE svg PUBLIC "-//W3C//DTD SVG 20010904//EN"
 "http://www.w3.org/TR/2001/REC-SVG-20010904/DTD/svg10.dtd">
<svg version="1.0" xmlns="http://www.w3.org/2000/svg"
 width="474.000000pt" height="474.000000pt" viewBox="0 0 474.000000 474.000000"
 preserveAspectRatio="xMidYMid meet">
<metadata>
Created by potrace 1.14, written by Peter Selinger 2001-2017
</metadata>
<g transform="translate(0.000000,474.000000) scale(0.100000,-0.100000)"
fill="#000000" stroke="none">
<path d="M2292 4530 c-22 -9 -46 -31 -92 -83 -25 -28 -25 -31 -30 -264 l-5
-236 -132 131 c-151 150 -197 178 -275 169 -69 -9 -129 -52 -163 -117 -17 -34
-20 -116 -4 -157 5 -15 138 -156 295 -313 l284 -286 0 -323 c0 -304 -1 -323
-17 -316 -10 4 -26 10 -35 12 -10 3 -18 8 -18 12 0 4 -16 13 -35 21 -19 8 -35
17 -35 21 0 4 -17 14 -37 23 -21 9 -74 39 -118 66 -44 27 -86 49 -92 50 -7 0
-13 4 -13 9 0 5 -8 11 -17 15 -32 11 -108 57 -114 69 -4 7 -66 191 -139 409
-72 218 -138 402 -146 409 -8 6 -14 16 -14 22 0 5 -10 19 -22 30 -77 67 -208
61 -274 -13 -73 -81 -72 -127 6 -362 33 -100 58 -183 55 -186 -2 -3 -47 20
-99 51 -52 30 -108 61 -125 68 -17 8 -31 17 -31 21 0 5 -4 8 -10 8 -5 0 -33
14 -61 32 -44 26 -62 32 -113 32 -66 -1 -94 -12 -142 -60 -46 -45 -54 -65 -54
-132 0 -91 35 -146 119 -189 20 -10 38 -21 41 -24 3 -4 28 -19 55 -34 70 -39
96 -53 130 -75 17 -11 41 -24 54 -30 13 -6 37 -20 54 -32 l31 -22 -30 -8 c-16
-5 -110 -26 -209 -49 -229 -51 -210 -44 -261 -95 -50 -51 -69 -105 -59 -168
12 -71 68 -137 134 -157 62 -19 101 -12 531 86 385 88 398 90 437 76 21 -8 55
-25 76 -38 21 -13 54 -33 73 -44 19 -10 49 -27 67 -38 69 -40 164 -94 202
-116 50 -29 53 -40 15 -56 -16 -8 -30 -17 -30 -21 0 -5 -6 -8 -13 -8 -8 0 -24
-9 -37 -20 -13 -11 -26 -20 -30 -20 -7 0 -38 -17 -138 -77 -21 -11 -61 -34
-89 -49 -29 -16 -53 -31 -53 -34 0 -4 -18 -13 -40 -20 -36 -12 -53 -10 -182
18 -79 18 -224 50 -323 72 -99 21 -219 48 -267 60 -152 35 -220 24 -287 -49
-33 -36 -41 -63 -41 -132 0 -66 14 -96 67 -145 27 -25 56 -36 151 -58 129 -31
261 -61 307 -71 29 -6 29 -7 10 -20 -11 -8 -24 -18 -30 -23 -5 -4 -25 -14 -42
-21 -18 -7 -33 -16 -33 -20 0 -4 -12 -12 -27 -18 -16 -7 -59 -30 -98 -53 -38
-22 -85 -48 -102 -57 -18 -9 -33 -20 -33 -25 0 -4 -5 -8 -11 -8 -14 0 -46 -33
-73 -75 -25 -38 -26 -128 -3 -172 23 -43 72 -93 92 -93 8 0 15 -4 15 -10 0 -6
28 -10 64 -10 53 0 74 6 122 32 33 17 74 38 92 47 17 8 32 19 32 23 0 4 6 8
13 8 8 0 24 9 37 20 13 11 29 20 36 20 7 0 14 3 16 8 3 8 108 62 108 56 0 -3
-20 -66 -45 -142 -25 -75 -52 -157 -60 -182 -52 -157 34 -290 188 -290 65 0
135 42 165 98 8 15 74 206 147 424 72 218 139 404 148 412 8 9 26 20 39 26 13
5 46 23 73 40 28 17 58 33 68 36 9 4 17 10 17 15 0 5 6 9 13 9 6 1 53 25 102
55 50 30 116 67 148 84 l57 31 0 -325 0 -325 -37 -42 c-21 -23 -149 -153 -285
-289 -137 -136 -252 -259 -258 -274 -14 -37 -12 -110 4 -148 15 -36 60 -86 94
-105 13 -7 45 -16 71 -19 76 -9 130 25 279 173 l127 127 5 -229 c5 -213 6
-231 27 -264 43 -70 94 -100 168 -100 73 0 132 29 170 83 l30 42 3 232 c2 128
5 233 8 233 2 0 61 -58 131 -128 152 -152 195 -178 278 -167 30 3 61 13 69 21
8 8 18 14 22 14 6 0 31 26 65 68 6 7 13 40 16 73 5 47 2 68 -13 97 -10 20
-144 163 -296 317 l-278 280 0 328 c0 180 3 327 6 327 8 0 64 -31 84 -46 8 -7
38 -24 65 -39 28 -14 64 -34 80 -44 48 -29 97 -57 135 -77 19 -11 37 -22 40
-25 3 -3 21 -14 40 -23 77 -36 73 -28 215 -454 74 -221 143 -415 152 -430 24
-37 65 -72 85 -72 9 0 20 -5 24 -11 10 -17 125 -5 160 17 39 25 49 35 73 75
36 58 29 118 -39 321 -33 100 -60 185 -60 191 0 8 169 -78 180 -92 3 -4 16
-12 30 -18 14 -7 48 -26 75 -43 114 -69 164 -81 233 -55 45 17 101 65 122 105
6 10 10 46 10 80 0 48 -6 71 -26 106 -14 24 -29 44 -33 44 -4 0 -16 9 -28 19
-11 11 -38 28 -59 38 -45 23 -89 47 -160 91 -28 18 -56 32 -63 32 -6 0 -11 4
-11 9 0 5 -9 13 -21 16 -12 4 -36 17 -54 29 l-33 23 204 47 c113 26 215 51
229 56 32 12 93 72 105 105 13 34 13 126 0 160 -10 26 -53 75 -66 75 -4 0 -12
8 -19 17 -16 21 -119 30 -178 14 -76 -20 -680 -153 -743 -164 l-61 -10 -89 52
c-49 29 -96 57 -104 62 -8 5 -28 16 -45 25 -16 8 -43 23 -60 34 -16 11 -39 24
-50 30 -11 5 -29 16 -40 22 -10 7 -37 24 -59 37 l-39 23 49 29 c27 17 56 34
64 39 8 5 44 26 80 46 83 46 106 60 155 89 22 14 64 37 92 52 l52 27 78 -16
c78 -15 642 -139 720 -158 63 -15 125 -12 163 8 44 22 80 53 80 68 0 7 5 14
12 16 14 5 24 124 14 164 -8 30 -77 101 -112 114 -13 5 -86 23 -161 40 -214
48 -273 62 -273 66 0 2 15 11 33 20 17 9 34 20 37 23 3 3 19 13 35 22 104 56
151 83 155 88 3 3 34 21 70 40 123 65 171 144 150 247 -6 30 -15 54 -20 54 -5
0 -12 9 -15 21 -4 11 -28 34 -53 50 -63 40 -142 41 -210 3 -26 -15 -65 -37
-87 -49 -95 -53 -140 -79 -145 -85 -10 -12 -110 -60 -110 -53 0 7 47 151 61
188 29 74 59 194 59 236 0 111 -92 196 -203 187 -62 -5 -128 -35 -135 -60 -2
-10 -8 -18 -13 -18 -15 0 -36 -59 -154 -415 -64 -192 -123 -369 -132 -392 -17
-46 -20 -48 -223 -161 -25 -13 -52 -31 -61 -38 -8 -8 -18 -14 -21 -14 -9 0
-152 -83 -158 -91 -3 -4 -22 -14 -42 -22 l-38 -16 0 326 0 326 285 286 c157
157 285 293 285 303 0 9 5 20 10 23 16 10 12 104 -7 143 -32 69 -88 110 -164
119 -75 9 -122 -20 -272 -169 l-132 -131 -5 229 c-4 204 -7 233 -24 259 -24
37 -64 76 -95 92 -27 15 -125 16 -159 3z"/>
</g>
</svg>
